<?xml version="1.0" encoding="UTF-8"?>
<svg width="1280px" height="720px" viewBox="0 0 1280 720" version="1.1" xmlns="http://www.w3.org/2000/svg" xmlns:xlink="http://www.w3.org/1999/xlink">
    <!-- Generator: Sketch 60.1 (88133) - https://sketch.com -->
    <title>school_doodle_export</title>
    <desc>Created with Sketch.</desc>
    <g id="school_doodle_export" stroke="none" stroke-width="1" fill="none" fill-rule="evenodd">
        <g id="graphic" transform="translate(424.000000, 206.000000)">
            <g id="tree" transform="translate(237.000000, 0.000000)" stroke="#056CF2">
                <path d="M21.1565433,80 C20.2955386,73.6669927 22.9862462,70.5004891 29.2286662,70.5004891 C29.2729616,65.3142036 31.8961608,63.4522421 37.0982638,64.9146045 C37.20523,60.3048682 39.5058087,58 44,58" id="tree_wiggle" stroke-width="4"></path>
                <path d="M62.1553915,91.0903307 C61.3007217,84.7313205 63.9716321,81.5518154 70.1681228,81.5518154 C70.2120923,76.3442353 72.815991,74.4746286 77.9798188,75.9429955 C78.085998,71.3143318 80.3696499,69 84.8307746,69" id="tree_wiggle" stroke-width="4" transform="translate(73.415387, 80.045165) rotate(40.000000) translate(-73.415387, -80.045165) "></path>
                <path d="M51.1553915,55.0903307 C50.3007217,48.7313205 52.9716321,45.5518154 59.1681228,45.5518154 C59.2120923,40.3442353 61.815991,38.4746286 66.9798188,39.9429955 C67.085998,35.3143318 69.3696499,33 73.8307746,33" id="tree_wiggle" stroke-width="4" transform="translate(62.415387, 44.045165) rotate(55.000000) translate(-62.415387, -44.045165) "></path>
                <path d="M34,184 L35.8118229,163.091785 L41.6757143,108.106017 C31.7135455,110.836216 26.3991278,107.894682 25.7324611,99.2814139 C25.4956551,99.0217291 7.1726731,97.9690903 11.1580153,82.3592775 C0.0356106881,78.0502584 -2.3503944,70.7351967 4,60.4140924 C-2,51.4713641 -1,44.3333333 7,39 C4.33333333,27.6666667 9,20.6666667 21,18 C23,6 30,2.33333333 42,7 C52,-1.66666667 61,-1.66666667 69,7 C80.3333333,4.33333333 87,8 89,18 C100.333333,20 105.333333,27 104,39 C113.333333,49.6666667 114.333333,59.6666667 107,69 C109,81 104.666667,88.6666667 94,92 C88,102.666667 80,107.333333 70,106 L83,187" id="tree_outline" stroke-width="8" stroke-linecap="round" stroke-linejoin="round"></path>
            </g>
            <g id="house" transform="translate(65.000000, 31.000000)" stroke="#056CF2" stroke-linejoin="round">
                <polyline id="house_frame" stroke-width="16" points="0 164 0 66.4810846 66.5 0 133 66.4810846 133 164"></polyline>
                <polyline id="house_door" stroke-width="8" stroke-linecap="round" points="23 165 23 95 58 95 58 165"></polyline>
                <polygon id="house_window" stroke-width="8" points="75 95 111 95 111 130 75 130"></polygon>
            </g>
            <text id="Text" font-family="OpenSans-Regular, Open Sans" font-size="16" font-weight="normal" line-spacing="40" fill="#636366">
                <tspan x="0" y="219">I was always a really creative kid, resulting in my school notes</tspan>
                <tspan x="0" y="259">looking like this all the time</tspan>
            </text>
        </g>
        <g id="copybook_lines" transform="translate(332.000000, 159.000000)" stroke-width="4">
            <line x1="0" y1="405" x2="617" y2="405" id="copybook_line_9" stroke="#438BF8" opacity="0.169456845"></line>
            <line x1="0" y1="364.5" x2="617" y2="364.5" id="copybook_line_8" stroke="#438BF8" opacity="0.169456845"></line>
            <line x1="0" y1="324.5" x2="617" y2="324.5" id="copybook_line_7" stroke="#438BF8" opacity="0.169456845"></line>
            <line x1="0" y1="284.5" x2="617" y2="284.5" id="copybook_line_6" stroke="#438BF8" opacity="0.169456845"></line>
            <line x1="0" y1="202.5" x2="617" y2="202.5" id="copybook_line_5" stroke="#438BF8" opacity="0.169456845"></line>
            <line x1="0" y1="162.5" x2="617" y2="162.5" id="copybook_line_4" stroke="#438BF8" opacity="0.169456845"></line>
            <line x1="0" y1="122.5" x2="617" y2="122.5" id="copybook_line_3" stroke="#438BF8" opacity="0.169456845"></line>
            <line x1="0" y1="82.5" x2="617" y2="82.5" id="copybook_line_2" stroke="#438BF8" opacity="0.169456845"></line>
            <line x1="0" y1="42.5" x2="617" y2="42.5" id="copybook_line_1" stroke="#438BF8" opacity="0.169456845"></line>
            <line x1="76.5" y1="-5.31275443e-14" x2="77" y2="450" id="copybook_red_line" stroke="#FFE9EE"></line>
        </g>
        <path d="M418,0 C418,7.33333333 418,24 418,50 C418,89 386,133 377,146 C371,154.666667 351,181 317,225 C287,265.666667 272,304.666667 272,342 C272,379.333333 292,399.000334 332,401.001002 L948.610521,401.001002 C1018.20351,401.346147 1053,439.39268 1053,515.140602 L1053,573 C1050.33333,633.666667 1036,664 1010,664 C984,664 975.666667,649.666667 985,621 C989.666667,607.666667 1001.66667,604.333333 1021,611 C1050,621 1088,665 1088,720" id="general_path" stroke="#056CF2" stroke-width="16"></path>
    </g>
</svg>